<svg width="1960" height="2205" viewBox="0 0 1960 2205" fill="none" xmlns="http://www.w3.org/2000/svg">
<g filter="url(#filter0_fn_353_244)">
<path fill-rule="evenodd" clip-rule="evenodd" d="M946.468 1908.48C854.317 1906.35 770.246 1861.26 684.707 1826.92C600.7 1793.2 519.077 1756.93 443.791 1706.67C363.041 1652.75 265.84 1606.94 223.996 1519.32C182.016 1431.42 205.765 1326.56 215.992 1229.69C225.192 1142.54 267.63 1063.88 281.218 977.307C296.227 881.669 257.872 776.84 300.686 690.013C343.173 603.852 431.407 547.896 515.692 501.8C598.131 456.712 693.367 448.146 784.533 425.39C878.486 401.937 969.419 357.996 1066.04 364.424C1164.55 370.977 1259.72 409.243 1342.83 462.531C1425.14 515.309 1502.63 583.463 1545.06 671.56C1586.63 757.866 1553.44 862.263 1579.72 954.384C1605.53 1044.87 1690.81 1114.19 1698.08 1208.01C1705.37 1302.14 1671.79 1398.73 1620.25 1477.83C1569.68 1555.43 1477.12 1591.81 1407.91 1653.35C1340.42 1713.36 1292.94 1795.46 1213.91 1839.15C1132.62 1884.1 1039.33 1910.62 946.468 1908.48Z" fill="#3A79F3"/>
</g>
<g filter="url(#filter1_fn_353_244)">
<path fill-rule="evenodd" clip-rule="evenodd" d="M946.46 1819.22C865.093 1817.34 790.859 1777.53 715.33 1747.21C641.153 1717.43 569.082 1685.41 502.605 1641.03C431.304 1593.42 345.478 1552.97 308.531 1475.6C271.463 1397.99 292.433 1305.4 301.463 1219.86C309.587 1142.91 347.059 1073.46 359.056 997.014C372.309 912.567 338.443 820.005 376.247 743.339C413.761 667.26 491.67 617.852 566.092 577.15C638.884 537.338 722.977 529.775 803.474 509.681C886.433 488.973 966.726 450.173 1052.04 455.849C1139.02 461.636 1223.05 495.424 1296.44 542.476C1369.12 589.078 1437.55 649.257 1475.01 727.045C1511.71 803.252 1482.4 895.432 1505.61 976.773C1528.4 1056.67 1603.7 1117.88 1610.12 1200.72C1616.55 1283.83 1586.9 1369.12 1541.39 1438.97C1496.75 1507.49 1415.02 1539.61 1353.9 1593.95C1294.31 1646.94 1252.39 1719.42 1182.61 1758.01C1110.83 1797.69 1028.45 1821.12 946.46 1819.22Z" fill="#6396F8"/>
</g>
<g filter="url(#filter2_fn_353_244)">
<path fill-rule="evenodd" clip-rule="evenodd" d="M946.455 1753.47C872.824 1751.76 805.649 1715.74 737.301 1688.3C670.177 1661.35 604.958 1632.38 544.802 1592.21C480.281 1549.14 402.615 1512.53 369.18 1442.52C335.637 1372.29 354.613 1288.5 362.784 1211.1C370.136 1141.46 404.045 1078.61 414.902 1009.43C426.894 933.018 396.248 849.256 430.458 779.879C464.406 711.034 534.907 666.324 602.253 629.491C668.124 593.465 744.221 586.621 817.065 568.438C892.136 549.699 964.794 514.588 1042 519.724C1120.71 524.96 1196.75 555.536 1263.16 598.114C1328.93 640.286 1390.85 694.742 1424.75 765.134C1457.96 834.096 1431.44 917.511 1452.44 991.119C1473.06 1063.42 1541.21 1118.81 1547.01 1193.77C1552.84 1268.98 1526 1346.16 1484.82 1409.37C1444.42 1471.37 1370.46 1500.44 1315.16 1549.61C1261.24 1597.56 1223.3 1663.16 1160.15 1698.07C1095.2 1733.98 1020.65 1755.18 946.455 1753.47Z" fill="#9EBBF3"/>
</g>
<defs>
<filter id="filter0_fn_353_244" x="0" y="163.789" width="1899.07" height="1944.81" filterUnits="userSpaceOnUse" color-interpolation-filters="sRGB">
<feFlood flood-opacity="0" result="BackgroundImageFix"/>
<feBlend mode="normal" in="SourceGraphic" in2="BackgroundImageFix" result="shape"/>
<feGaussianBlur stdDeviation="100" result="effect1_foregroundBlur_353_244"/>
<feTurbulence type="fractalNoise" baseFrequency="2 2" stitchTiles="stitch" numOctaves="3" result="noise" seed="8944" />
<feColorMatrix in="noise" type="luminanceToAlpha" result="alphaNoise" />
<feComponentTransfer in="alphaNoise" result="coloredNoise1">
<feFuncA type="discrete" tableValues="0 0 0 0 1 1 1 1 1 1 1 1 1 1 1 1 1 1 1 1 1 1 1 1 1 1 1 1 1 1 1 1 1 1 1 1 1 1 1 1 1 1 1 1 1 0 0 0 0 0 0 0 0 0 0 0 0 0 0 0 0 0 0 0 0 0 0 0 0 0 0 0 0 0 0 0 0 0 0 0 0 0 0 0 0 0 0 0 0 0 0 0 0 0 0 0 0 0 0 0 "/>
</feComponentTransfer>
<feComposite operator="in" in2="effect1_foregroundBlur_353_244" in="coloredNoise1" result="noise1Clipped" />
<feFlood flood-color="rgba(0, 0, 0, 0.25)" result="color1Flood" />
<feComposite operator="in" in2="noise1Clipped" in="color1Flood" result="color1" />
<feMerge result="effect2_noise_353_244">
<feMergeNode in="effect1_foregroundBlur_353_244" />
<feMergeNode in="color1" />
</feMerge>
</filter>
<filter id="filter1_fn_353_244" x="137.343" y="305.289" width="1623.65" height="1664.04" filterUnits="userSpaceOnUse" color-interpolation-filters="sRGB">
<feFlood flood-opacity="0" result="BackgroundImageFix"/>
<feBlend mode="normal" in="SourceGraphic" in2="BackgroundImageFix" result="shape"/>
<feGaussianBlur stdDeviation="75" result="effect1_foregroundBlur_353_244"/>
<feTurbulence type="fractalNoise" baseFrequency="2 2" stitchTiles="stitch" numOctaves="3" result="noise" seed="8944" />
<feColorMatrix in="noise" type="luminanceToAlpha" result="alphaNoise" />
<feComponentTransfer in="alphaNoise" result="coloredNoise1">
<feFuncA type="discrete" tableValues="0 0 0 0 1 1 1 1 1 1 1 1 1 1 1 1 1 1 1 1 1 1 1 1 1 1 1 1 1 1 1 1 1 1 1 1 1 1 1 1 1 1 1 1 1 0 0 0 0 0 0 0 0 0 0 0 0 0 0 0 0 0 0 0 0 0 0 0 0 0 0 0 0 0 0 0 0 0 0 0 0 0 0 0 0 0 0 0 0 0 0 0 0 0 0 0 0 0 0 0 "/>
</feComponentTransfer>
<feComposite operator="in" in2="effect1_foregroundBlur_353_244" in="coloredNoise1" result="noise1Clipped" />
<feFlood flood-color="rgba(0, 0, 0, 0.25)" result="color1Flood" />
<feComposite operator="in" in2="noise1Clipped" in="color1Flood" result="color1" />
<feMerge result="effect2_noise_353_244">
<feMergeNode in="effect1_foregroundBlur_353_244" />
<feMergeNode in="color1" />
</feMerge>
</filter>
<filter id="filter2_fn_353_244" x="100.007" y="269.217" width="1697.8" height="1734.35" filterUnits="userSpaceOnUse" color-interpolation-filters="sRGB">
<feFlood flood-opacity="0" result="BackgroundImageFix"/>
<feBlend mode="normal" in="SourceGraphic" in2="BackgroundImageFix" result="shape"/>
<feGaussianBlur stdDeviation="125" result="effect1_foregroundBlur_353_244"/>
<feTurbulence type="fractalNoise" baseFrequency="2 2" stitchTiles="stitch" numOctaves="3" result="noise" seed="8944" />
<feColorMatrix in="noise" type="luminanceToAlpha" result="alphaNoise" />
<feComponentTransfer in="alphaNoise" result="coloredNoise1">
<feFuncA type="discrete" tableValues="0 0 0 0 1 1 1 1 1 1 1 1 1 1 1 1 1 1 1 1 1 1 1 1 1 1 1 1 1 1 1 1 1 1 1 1 1 1 1 1 1 1 1 1 1 0 0 0 0 0 0 0 0 0 0 0 0 0 0 0 0 0 0 0 0 0 0 0 0 0 0 0 0 0 0 0 0 0 0 0 0 0 0 0 0 0 0 0 0 0 0 0 0 0 0 0 0 0 0 0 "/>
</feComponentTransfer>
<feComposite operator="in" in2="effect1_foregroundBlur_353_244" in="coloredNoise1" result="noise1Clipped" />
<feFlood flood-color="rgba(0, 0, 0, 0.25)" result="color1Flood" />
<feComposite operator="in" in2="noise1Clipped" in="color1Flood" result="color1" />
<feMerge result="effect2_noise_353_244">
<feMergeNode in="effect1_foregroundBlur_353_244" />
<feMergeNode in="color1" />
</feMerge>
</filter>
</defs>
</svg>
