<svg width="1454" height="1888" viewBox="0 0 1454 1888" fill="none" xmlns="http://www.w3.org/2000/svg">
<g filter="url(#filter0_f_393_20)">
<path fill-rule="evenodd" clip-rule="evenodd" d="M744.707 150.299C818.297 153.285 884.833 190.475 952.692 219.104C1019.34 247.22 1084.04 277.329 1143.48 318.537C1207.24 362.735 1284.26 400.692 1316.47 471.271C1348.78 542.081 1328.34 625.524 1318.82 702.773C1310.26 772.272 1275.26 834.516 1263.19 903.494C1249.87 979.69 1279.05 1063.97 1243.63 1132.74C1208.49 1200.99 1137.22 1244.46 1069.24 1280.11C1002.75 1314.98 926.546 1320.5 853.396 1337.41C778.009 1354.83 704.749 1388.67 627.646 1382.19C549.039 1375.58 473.544 1343.68 407.89 1299.95C342.863 1256.63 281.904 1201.11 249.235 1130.13C217.23 1060.6 245.204 977.662 225.496 903.7C206.138 831.049 138.968 774.477 134.473 699.426C129.963 624.124 158.138 547.426 200.416 484.95C241.892 423.66 316.349 395.889 372.502 347.685C427.254 300.683 466.328 235.761 530.078 201.954C595.646 167.182 670.55 147.29 744.707 150.299Z" fill="#082C6F"/>
</g>
<g filter="url(#filter1_f_393_20)">
<path fill-rule="evenodd" clip-rule="evenodd" d="M744.707 289.299C818.297 292.285 884.833 329.475 952.692 358.104C1019.34 386.22 1084.04 416.329 1143.48 457.537C1207.24 501.735 1284.26 539.692 1316.47 610.271C1348.78 681.081 1328.34 764.524 1318.82 841.773C1310.26 911.272 1275.26 973.516 1263.19 1042.49C1249.87 1118.69 1279.05 1202.97 1243.63 1271.74C1208.49 1339.99 1137.22 1383.46 1069.24 1419.11C1002.75 1453.98 926.546 1459.5 853.396 1476.41C778.009 1493.83 704.749 1527.67 627.646 1521.19C549.039 1514.58 473.544 1482.68 407.89 1438.95C342.863 1395.63 281.904 1340.11 249.235 1269.13C217.23 1199.6 245.204 1116.66 225.496 1042.7C206.138 970.049 138.968 913.477 134.473 838.426C129.963 763.124 158.138 686.426 200.416 623.95C241.892 562.66 316.349 534.889 372.502 486.685C427.254 439.683 466.328 374.761 530.078 340.954C595.646 306.182 670.55 286.29 744.707 289.299Z" fill="#5D92F7"/>
</g>
<g filter="url(#filter2_f_393_20)">
<path fill-rule="evenodd" clip-rule="evenodd" d="M730.707 505.299C804.297 508.285 870.833 545.475 938.692 574.104C1005.34 602.22 1070.04 632.329 1129.48 673.537C1193.24 717.735 1270.26 755.692 1302.47 826.271C1334.78 897.081 1314.34 980.524 1304.82 1057.77C1296.26 1127.27 1261.26 1189.52 1249.19 1258.49C1235.87 1334.69 1265.05 1418.97 1229.63 1487.74C1194.49 1555.99 1123.22 1599.46 1055.24 1635.11C988.751 1669.98 912.546 1675.5 839.396 1692.41C764.009 1709.83 690.749 1743.67 613.646 1737.19C535.039 1730.58 459.544 1698.68 393.89 1654.95C328.863 1611.63 267.904 1556.11 235.235 1485.13C203.23 1415.6 231.204 1332.66 211.496 1258.7C192.138 1186.05 124.968 1129.48 120.473 1054.43C115.963 979.124 144.138 902.426 186.416 839.95C227.892 778.66 302.349 750.889 358.502 702.685C413.254 655.683 452.328 590.761 516.078 556.954C581.646 522.182 656.55 502.29 730.707 505.299Z" fill="#9EBBF3"/>
</g>
<defs>
<filter id="filter0_f_393_20" x="14" y="30" width="1440" height="1473" filterUnits="userSpaceOnUse" color-interpolation-filters="sRGB">
<feFlood flood-opacity="0" result="BackgroundImageFix"/>
<feBlend mode="normal" in="SourceGraphic" in2="BackgroundImageFix" result="shape"/>
<feGaussianBlur stdDeviation="60" result="effect1_foregroundBlur_393_20"/>
</filter>
<filter id="filter1_f_393_20" x="14" y="169" width="1440" height="1473" filterUnits="userSpaceOnUse" color-interpolation-filters="sRGB">
<feFlood flood-opacity="0" result="BackgroundImageFix"/>
<feBlend mode="normal" in="SourceGraphic" in2="BackgroundImageFix" result="shape"/>
<feGaussianBlur stdDeviation="60" result="effect1_foregroundBlur_393_20"/>
</filter>
<filter id="filter2_f_393_20" x="0" y="385" width="1440" height="1473" filterUnits="userSpaceOnUse" color-interpolation-filters="sRGB">
<feFlood flood-opacity="0" result="BackgroundImageFix"/>
<feBlend mode="normal" in="SourceGraphic" in2="BackgroundImageFix" result="shape"/>
<feGaussianBlur stdDeviation="60" result="effect1_foregroundBlur_393_20"/>
</filter>
</defs>
</svg>
